**ABCDEFGHIJKLMNOPQRSTUVWXYZabcdefghijklmnopqrstuvwxyz**************************
**PARASOLID !"#$%&'()*+,-./:;<=>?@[\]^_`{|}~0123456789**************************
**PART1;
MC=AMD64;
MC_MODEL=Intel64 Family 6 Model 158 Stepping 9, GenuineIntel;
MC_ID=unknown;
OS=Windows_NT;
OS_RELEASE=unknown;
FRU=Parasolid Version 31.0, build 264, 12-10-2018;
APPL=SOLIDWORKS 2019-2019057;
SITE=;
USER=unknown;
FORMAT=text;
GUISE=transmit;
KEY=makeProjectedPlanarWire;
FILE=makeProjectedPlanarWire.x_t;
DATE=Sat Aug 29 18:51:41 2020;
**PART2;
SCH=SCH_3100264_31001;
USFLD_SIZE=0;
**PART3;
**END_OF_HEADER*****************************************************************
T51 : TRANSMIT FILE created by modeller version 310026423 SCH_3100264_31001_1300
6215 0 12 34 CCCCCCI4 mesh1006 0 I8 polyline1008 0 CCCCCCCDI5 owner1040 0 CCCCCC
I13 boundary_mesh1006 0 I17 boundary_polyline1008 0 CCCA16 index_map_offset0 0 1
 dA9 index_map82 0 A17 node_id_index_map82 0 A20 schema_embedding_map82 0 A5 chi
ld12 0 A14 lowest_node_id0 0 1 dA16 mesh_offset_data206 0 Z1 173 0 0 0 0 0 0 0 0
 1e3 1e-8 0 2 0 1 0 3 1 3 4 5 6 0 0 7 8 9 0 0 0 0 0 0 0 13 255 3 82 0 1 0 10 0 0
 7 10 50 255 4 3 0 10 0 0 0 +0 0 .0155 0 0 1 1 0 0 30 255 5 53 0 8 11 0 0 +0 -.0
02 .0155 1 0 0 29 255 6 80 0 9 12 0 .015 -.002 .0155 19 8 CCCCCCCA5 owner12 0 Z7
 81 0 1 0 0 3 V0 16 255 8 51 0 ?13 0 14 5 0 0 1 18 255 9 78 0 15 0 16 6 ?1 17 25
5 15 0 0 0 0 9 17 18 0 13 +18 16 75 0 19 9 20 12 ?1 17 19 0 21 13 22 16 23 14 0
 24 +18 20 72 0 22 16 25 26 ?1 29 12 77 0 16 26 6 -.015 -.002 .0155 29 26 74 0 2
0 27 12 -.015 .028 .0155 29 27 71 0 25 28 26 .015 .028 .0155 18 25 69 0 17 20 29
 27 ?1 29 28 68 0 29 30 27 -.0138 -8e-4 .0155 18 29 66 0 31 25 32 28 ?1 29 30 65
 0 32 33 28 .0138 -8e-4 .0155 18 32 63 0 34 29 35 30 ?1 29 33 62 0 35 36 30 .013
8 .0268 .0155 18 35 60 0 37 32 38 33 ?1 29 36 59 0 38 0 33 -.0138 .0268 .0155 18
 38 57 0 39 35 0 36 ?1 17 39 0 40 37 41 38 31 42 0 43 -15 255 40 7 0 39 10 21 17
 37 0 40 34 39 35 43 44 0 45 +17 41 0 40 39 34 29 46 47 0 0 -17 31 0 0 0 0 29 39
 42 0 41 +16 42 9 0 ?31 44 0 48 0 0 1 17 43 0 0 0 0 38 37 44 0 0 -16 44 15 0 ?37
 49 42 50 0 0 1 16 49 21 0 ?34 47 44 51 0 0 1 30 50 17 0 44 48 51 0 +0 .0268 .01
55 1 0 0 30 48 11 0 42 0 50 0 +-.0138 -173472347597681e-32 .0155 125704599708464
2e-31 -1 0 30 51 23 0 49 50 52 0 +.0138 867361737988404e-33 .0155 62852299854232
2e-31 -1 0 30 52 29 0 47 51 53 0 +-4399660989796285e-35 -8e-4 .0155 1 -549957623
724531e-31 0 16 47 27 0 ?46 18 49 52 0 0 1 30 53 35 0 18 52 54 0 +.015 173472347
5976805e-33 .0155 115648231731787e-30 -1 0 16 18 33 0 ?15 55 47 53 0 0 1 30 54 4
1 0 55 53 11 0 +0 .028 .0155 1 0 0 16 55 39 0 ?56 14 18 54 0 0 1 30 11 47 0 14 5
4 5 0 +-.015 -260208521396521e-32 .0155 1734723475976805e-31 -1 0 16 14 45 0 ?19
 8 55 11 0 0 1 17 56 0 0 0 0 25 22 55 0 0 +17 22 0 21 19 17 20 56 55 0 23 -15 21
 8 0 17 10 0 17 17 0 21 22 13 25 15 18 0 56 -17 23 0 0 0 0 20 19 14 0 0 -17 13 0
 21 17 19 9 24 8 0 0 +17 24 0 0 0 0 16 13 8 0 0 -14 255 10 1 0 ?0 0 40 3 4 +0 0
 0 0 3 17 46 0 0 0 0 32 41 47 0 0 +17 34 0 40 41 37 32 45 49 0 46 +17 45 0 0 0 0
 35 34 49 0 0 -1 0 
